<svg xmlns="http://www.w3.org/2000/svg" xmlns:xlink="http://www.w3.org/1999/xlink" viewBox="0 0 44.03 44.96"><defs><style>.cls-1{fill:none;}.cls-2{clip-path:url(#clip-path);}.cls-3{fill:#e4eccb;opacity:0.5;}</style><clipPath id="clip-path" transform="translate(-6.85 -6.39)"><rect class="cls-1" width="57.74" height="57.74"/></clipPath></defs><g id="圖層_2" data-name="圖層 2"><g id="圖層_1-2" data-name="圖層 1"><g class="cls-2"><circle class="cls-3" cx="29.57" cy="30.49" r="14.47"/><path d="M32.8,33.29c.72-.41,1.35-.79,2-1.14a5.34,5.34,0,0,1,7.44,6.71l-.16.41a5.53,5.53,0,0,1,2.19,3,5.34,5.34,0,0,1-5.08,6.75H25.4a5.33,5.33,0,0,1-3.7-1.49,1.17,1.17,0,0,0-.67-.27H12.65a5.57,5.57,0,0,1-5.58-4.17,6.18,6.18,0,0,1-.2-1.61c0-6.59,0-13.19,0-19.79A8,8,0,0,1,10.12,15c1-.77,2.05-1.46,3.09-2.18l.52-.36a1.73,1.73,0,0,1-.86-1.72c0-.91,0-1.81,0-2.71a1.49,1.49,0,0,1,1.65-1.65H25.16A1.47,1.47,0,0,1,26.78,8c0,1,0,1.93,0,2.89a1.66,1.66,0,0,1-.85,1.57c.49.33,1,.63,1.43,1,.88.64,1.78,1.25,2.62,2a7.67,7.67,0,0,1,2.81,6.11c0,3.73,0,7.46,0,11.19ZM31.39,22.77H8.32V39.51H21A3.31,3.31,0,0,0,22.89,39c2.68-1.6,5.39-3.14,8.1-4.69a.69.69,0,0,0,.41-.7q0-5.2,0-10.41Zm0-1.43c-.07-.5-.09-1-.19-1.42a6.24,6.24,0,0,0-2.59-3.87c-1.58-1.16-3.22-2.25-4.84-3.36a.89.89,0,0,0-.44-.1h-7a1,1,0,0,0-.51.15c-1.11.74-2.22,1.49-3.31,2.24a10.89,10.89,0,0,0-3.22,2.94,6,6,0,0,0-1,3.41ZM28.77,37.23c-1.86,1.08-3.67,2.09-5.44,3.16a3.91,3.91,0,0,0-1.75,4.28,4,4,0,0,0,5.87,2.45c1.68-.95,3.35-1.93,5-2.89a2.15,2.15,0,0,0,.24-.18ZM20.52,45.9a5.5,5.5,0,0,1,.34-5H8.33a4.2,4.2,0,0,0,4.1,5c1.71,0,3.41,0,5.12,0Zm20.84-5.4c-.58.4-1.12.83-1.7,1.18-2.11,1.24-4.23,2.45-6.35,3.68-.13.08-.31.22-.31.34,0,.65,0,1.31,0,2h.52c1.76,0,3.52,0,5.28,0a7.59,7.59,0,0,0,1.07-.08A3.94,3.94,0,0,0,43,44.44,3.87,3.87,0,0,0,41.36,40.5Zm-16-29.31V7.8h-11v3.39Zm5.81,24.68,1.08.61q3.3,1.86,6.62,3.7a.6.6,0,0,0,.46.08,8.24,8.24,0,0,0,.85-.62l-7.75-4.32a.32.32,0,0,0-.3,0C31.8,35.48,31.49,35.67,31.15,35.87Zm9.76,2.59c.09-.28.17-.5.24-.73a.42.42,0,0,0-.24-.55C38.94,36.1,37,35,35,33.91a.48.48,0,0,0-.38,0c-.33.15-.62.35-1,.56ZM30.38,37l-.07.07c.31.53.61,1.06.93,1.59a.81.81,0,0,0,.27.25l4.9,2.74a.49.49,0,0,0,.35.05c.32-.16.63-.36,1-.57Zm6-4L41,35.62A3.82,3.82,0,0,0,36.39,33.06Zm-3.53,8.25-.08.08,1.16,2,1.29-.75Zm-1.31,6.36v-1.3l-2.25,1.3Z" transform="translate(-6.85 -6.39)"/><path d="M22.21,28.75c.82,0,1.57,0,2.33,0s.93.22.93.92q0,1.44,0,2.88c0,.68-.26.93-.94.93H22.21V35.7c0,.83-.22,1-1.05,1H18.37c-.64,0-.89-.25-.9-.88V33.48H16c-.33,0-.66,0-1,0a.7.7,0,0,1-.75-.76c0-1.07,0-2.15,0-3.22,0-.51.25-.74.78-.75.8,0,1.6,0,2.47,0,0-.65,0-1.26,0-1.87,0-1.27.07-1.44,1.39-1.4.8,0,1.61,0,2.41,0s.94.23.94,1ZM24,32.07V30.13c-.75,0-1.48,0-2.21,0s-1-.21-1-1V26.87H18.87v1.8c0,1.42,0,1.46-1.47,1.46H15.63v1.94h2.18c.86,0,1.06.19,1.06,1.06V35.3h1.92V33.72c0-1.65,0-1.65,1.63-1.65Z" transform="translate(-6.85 -6.39)"/></g></g></g></svg>