<svg xmlns="http://www.w3.org/2000/svg" xmlns:xlink="http://www.w3.org/1999/xlink" viewBox="0 0 49.76 44.38"><defs><style>.cls-1,.cls-4{fill:none;}.cls-2{clip-path:url(#clip-path);}.cls-3{fill:#e4eccb;opacity:0.5;}.cls-4{stroke:#040000;stroke-linecap:round;stroke-linejoin:round;stroke-width:2px;}</style><clipPath id="clip-path" transform="translate(-3.49 -6.18)"><rect class="cls-1" width="57.74" height="57.74"/></clipPath></defs><g id="圖層_2" data-name="圖層 2"><g id="圖層_1-2" data-name="圖層 1"><g class="cls-2"><circle class="cls-3" cx="35.3" cy="29.92" r="14.47"/><polyline class="cls-4" points="24.32 26.43 27.98 31.08 33.97 24.1"/><path class="cls-4" d="M12.64,16.74H24.19" transform="translate(-3.49 -6.18)"/><path class="cls-4" d="M12.64,24.55h7.15" transform="translate(-3.49 -6.18)"/><path class="cls-4" d="M12.64,32.62h2.82" transform="translate(-3.49 -6.18)"/><path class="cls-4" d="M16.79,45.5H7.39a2.9,2.9,0,0,1-2.9-2.9V10.08a2.9,2.9,0,0,1,2.9-2.9H32.1a2.9,2.9,0,0,1,2.9,2.9v9.66" transform="translate(-3.49 -6.18)"/><path class="cls-4" d="M33,23.73a12,12,0,1,0,12,12A12,12,0,0,0,33,23.73Z" transform="translate(-3.49 -6.18)"/></g></g></g></svg>