<?xml version="1.0" encoding="utf-8"?>
<!-- Generator: Adobe Illustrator 27.9.2, SVG Export Plug-In . SVG Version: 6.00 Build 0)  -->
<svg version="1.1" id="圖層_1" xmlns="http://www.w3.org/2000/svg" xmlns:xlink="http://www.w3.org/1999/xlink" x="0px" y="0px"
	 viewBox="0 0 42.2 37.4" style="enable-background:new 0 0 42.2 37.4;" xml:space="preserve">
<style type="text/css">
	.st0{clip-path:url(#SVGID_00000035530293779482919350000007358323534300016022_);}
	.st1{opacity:0.5;fill:#E4ECCB;enable-background:new    ;}
</style>
<g id="圖層_2_00000062159504850812292500000009146125936592230033_">
	<g id="圖層_1-2">
		<g>
			<defs>
				<rect id="SVGID_1_" x="-7.8" y="-10.2" width="57.7" height="57.7"/>
			</defs>
			<clipPath id="SVGID_00000083791342568706495580000000265031132277210261_">
				<use xlink:href="#SVGID_1_"  style="overflow:visible;"/>
			</clipPath>
			<g style="clip-path:url(#SVGID_00000083791342568706495580000000265031132277210261_);">
				<circle class="st1" cx="27.7" cy="22.9" r="14.5"/>
				<path d="M32.5,8C30,4.2,25.9,1.5,21.3,0.7c-1.2-0.2-2.3-0.4-3.5-0.4c-3.9,0-7.6,1.3-10.7,3.8c-3.4,2.6-5.7,6.4-6.5,10.6
					c-0.1,0.4-0.1,0.8-0.2,1.2c0,0.2,0,0.4-0.1,0.6l0,0.1c0,0,0,0.1,0,0.2v2.5l0.1,0.5c0.1,0.5,0.1,0.9,0.2,1.4
					C2,28.7,8,34.4,15.5,35.5l1.2,0.2l2.5,0c0.2,0,0.5-0.1,0.8-0.1c0.4-0.1,0.7-0.1,1.1-0.2c4.2-0.7,7.9-3,10.6-6.3
					c1.9-2.3,3.2-5.1,3.6-8.1C36.2,16.5,35.2,11.8,32.5,8L32.5,8z M28.6,30.3c-3,2.6-6.8,3.9-10.6,3.9c-3.8,0-7.6-1.3-10.6-3.9
					c-3.3-2.8-5.3-6.8-5.6-11.1c-0.3-4.3,1.1-8.5,3.9-11.8L6,7.1l4.5,4.5l-0.2,0.3c-0.2,0.3-0.3,0.6-0.3,0.9
					c-0.1,1.5,0.1,2.9,0.7,4.2c0.1,0.2,0.2,0.4,0.3,0.6l0.4,0.7l-0.5,0.1c-0.7,0.1-0.8,0.3-0.8,1c-0.1,1.2,0.1,2.4,0.4,3.5
					c0.6,2.1,2.3,3.6,4.4,3.9c0.5,0.1,1,0.2,1.5,0.2c0.2,0,0.5,0.1,0.7,0.1l0.3,0v3.7c0,0.1,0,0.1,0,0.2c0,0.4,0.4,0.7,0.7,0.6
					c0.4,0,0.7-0.4,0.6-0.7l0-3.8l0.4,0c1.7,0.1,3.5-0.5,4.9-1.5l0.3-0.2l4.7,4.7L28.6,30.3z M23.3,17.5c-0.9,0.9-2.3,1.4-3.9,1.4
					L18.8,20l0-1.5c0-1.8,0.4-3.2,1.4-4.1c0.9-0.9,2.3-1.4,4.1-1.4l0.3,0l0,0.3C24.7,15.1,24.3,16.5,23.3,17.5z M24.7,19.6l0,0.4
					c0.1,1.4-0.4,2.9-1.2,4c-1.2,1.3-2.8,1.5-4.3,1.5l0-0.3l-0.4,0c0-1.8,0.4-3.2,1.4-4.2c0.9-0.9,2.3-1.4,4.2-1.4c0,0,0,0,0,0
					L24.7,19.6z M18.3,14.3L18,14.6l-0.3-0.3c-2.6-2.7-2.6-5.2,0-7.8L18,6.3l0.3,0.3c1.3,1.3,2,2.6,2,3.9
					C20.2,11.7,19.6,13,18.3,14.3z M15.8,14.3c1,0.9,1.5,2.4,1.4,4.2l0,0.1l-0.1,0.2l-0.3,0c-0.1,0-0.2,0-0.3,0
					c-1.7,0-2.9-0.5-3.8-1.4c-1-1-1.4-2.4-1.4-4.2l0-0.3l0.3,0C13.5,12.9,14.9,13.3,15.8,14.3z M11.4,19.7l0.4,0
					c1.8-0.1,3.2,0.4,4.1,1.3c1,0.9,1.4,2.3,1.4,4.2l-0.1,0.2l-0.1,0.2l-0.2,0c-0.1,0-0.1,0-0.2,0c-1.7,0-3-0.4-3.9-1.3
					c-0.9-0.9-1.4-2.3-1.4-4.2L11.4,19.7z M30.2,28.7L30,29l-4.8-4.8l0.1-0.2c0.2-0.8,0.5-1.6,0.6-2.4C26,20.7,26,19.8,26,19
					c0-0.3-0.1-0.6-0.8-0.7l-0.5-0.1l0.2-0.4c0.1-0.2,0.2-0.4,0.2-0.5c0.2-0.4,0.3-0.8,0.5-1.2c0.4-1.2,0.5-2.5,0.4-3.7
					c0-0.4-0.3-0.7-0.7-0.7c0,0,0,0,0,0c-1.1-0.1-2.1,0-3.1,0.2c-0.1,0-0.2,0-0.3,0l-0.4,0l0.1-0.4c0.2-0.8,0.1-1.7-0.1-2.6
					c-0.6-1.6-1.6-3-3-4.1c-0.2-0.2-0.6-0.2-0.8,0c-1.6,1.2-2.7,2.8-3.1,4.7c-0.1,0.6-0.1,1.3-0.1,2l0,0.4l-0.5,0
					c-0.3,0-0.8-0.1-1.2-0.2c-0.1,0-0.3-0.1-0.4-0.2L7,6.1l0.3-0.3c6.1-5.2,15-5.2,21.1,0C35.2,11.6,36,21.9,30.2,28.7z"/>
			</g>
		</g>
	</g>
</g>
</svg>
