<svg xmlns="http://www.w3.org/2000/svg" xmlns:xlink="http://www.w3.org/1999/xlink" viewBox="0 0 52.46 44.75"><defs><style>.cls-1,.cls-4,.cls-5{fill:none;}.cls-2{clip-path:url(#clip-path);}.cls-3{fill:#e4eccb;opacity:0.5;}.cls-4,.cls-5{stroke:#231815;stroke-width:2px;}.cls-4{stroke-miterlimit:10;}.cls-5{stroke-linecap:round;stroke-linejoin:round;}</style><clipPath id="clip-path" transform="translate(-2.14 -6)"><rect class="cls-1" width="57.74" height="57.74"/></clipPath></defs><g id="圖層_2" data-name="圖層 2"><g id="圖層_1-2" data-name="圖層 1"><g class="cls-2"><circle class="cls-3" cx="38" cy="30.28" r="14.47"/><path class="cls-4" d="M20.31,1h0a9.45,9.45,0,0,1,9.45,9.45V13a9.06,9.06,0,0,1-9.06,9.06h-.78A9.06,9.06,0,0,1,10.86,13V10.45A9.45,9.45,0,0,1,20.31,1Z"/><path class="cls-5" d="M13,17.8s3.42-1,4.21-3.26a9.46,9.46,0,0,0,5.4,1.51" transform="translate(-2.14 -6)"/><path class="cls-5" d="M31.9,17.8s-3.42-1-4.21-3.26a9.48,9.48,0,0,1-5.41,1.51" transform="translate(-2.14 -6)"/><polyline class="cls-5" points="16.18 21.82 16.18 25.55 20.07 32.22"/><polyline class="cls-5" points="24.12 21.82 24.12 25.55 20.23 32.22"/><line class="cls-5" x1="11.57" y1="27.22" x2="11.57" y2="34.53"/><circle class="cls-5" cx="11.56" cy="37.52" r="2.91"/><path class="cls-5" d="M18.07,31.94c-.47.24-5.57-.22-9.85,3.26C4.81,38,4,42.91,3.14,46.09" transform="translate(-2.14 -6)"/><path class="cls-5" d="M26.65,31.94a28.22,28.22,0,0,1,5.45.9,13.51,13.51,0,0,1,4.41,2.36c3.41,2.78,4.21,7.71,5.08,10.89" transform="translate(-2.14 -6)"/><path class="cls-5" d="M33.06,46.4h2.07V41.81a3.59,3.59,0,0,0-3.59-3.59H30.37a3.59,3.59,0,0,0-3.59,3.59V46.4h2.44" transform="translate(-2.14 -6)"/><line class="cls-5" x1="28.82" y1="32.22" x2="28.82" y2="26.85"/></g></g></g></svg>