<svg xmlns="http://www.w3.org/2000/svg" viewBox="0 0 224.47 198.53"><defs><style>.cls-1{fill:#5b8b51;}</style></defs><g id="圖層_2" data-name="圖層 2"><g id="圖層_1-2" data-name="圖層 1"><circle class="cls-1" cx="3.99" cy="3.99" r="3.99"/><circle class="cls-1" cx="3.99" cy="27.43" r="3.99"/><circle class="cls-1" cx="3.99" cy="50.88" r="3.99"/><circle class="cls-1" cx="3.99" cy="74.82" r="3.99"/><circle class="cls-1" cx="3.99" cy="98.76" r="3.99"/><circle class="cls-1" cx="3.99" cy="122.71" r="3.99"/><circle class="cls-1" cx="3.99" cy="146.65" r="3.99"/><circle class="cls-1" cx="3.99" cy="170.59" r="3.99"/><circle class="cls-1" cx="3.99" cy="194.54" r="3.99"/><circle class="cls-1" cx="34.92" cy="3.99" r="3.99"/><circle class="cls-1" cx="34.92" cy="27.43" r="3.99"/><circle class="cls-1" cx="34.92" cy="50.88" r="3.99"/><circle class="cls-1" cx="34.92" cy="74.82" r="3.99"/><circle class="cls-1" cx="34.92" cy="98.76" r="3.99"/><circle class="cls-1" cx="34.92" cy="122.71" r="3.99"/><circle class="cls-1" cx="34.92" cy="146.65" r="3.99"/><circle class="cls-1" cx="34.92" cy="170.59" r="3.99"/><circle class="cls-1" cx="34.92" cy="194.54" r="3.99"/><circle class="cls-1" cx="65.84" cy="3.99" r="3.99"/><circle class="cls-1" cx="65.84" cy="27.43" r="3.99"/><circle class="cls-1" cx="65.84" cy="50.88" r="3.99"/><circle class="cls-1" cx="65.84" cy="74.82" r="3.99"/><circle class="cls-1" cx="65.84" cy="98.76" r="3.99"/><circle class="cls-1" cx="65.84" cy="122.71" r="3.99"/><circle class="cls-1" cx="65.84" cy="146.65" r="3.99"/><circle class="cls-1" cx="65.84" cy="170.59" r="3.99"/><circle class="cls-1" cx="65.84" cy="194.54" r="3.99"/><circle class="cls-1" cx="96.77" cy="3.99" r="3.99"/><circle class="cls-1" cx="96.77" cy="27.43" r="3.99"/><circle class="cls-1" cx="96.77" cy="50.88" r="3.99"/><circle class="cls-1" cx="96.77" cy="74.82" r="3.99"/><circle class="cls-1" cx="96.77" cy="98.76" r="3.99"/><circle class="cls-1" cx="96.77" cy="122.71" r="3.99"/><circle class="cls-1" cx="96.77" cy="146.65" r="3.99"/><circle class="cls-1" cx="96.77" cy="170.59" r="3.99"/><circle class="cls-1" cx="96.77" cy="194.54" r="3.99"/><circle class="cls-1" cx="127.7" cy="3.99" r="3.99"/><circle class="cls-1" cx="127.7" cy="27.43" r="3.99"/><circle class="cls-1" cx="127.7" cy="50.88" r="3.99"/><circle class="cls-1" cx="127.7" cy="74.82" r="3.99"/><circle class="cls-1" cx="127.7" cy="98.76" r="3.99"/><circle class="cls-1" cx="127.7" cy="122.71" r="3.99"/><circle class="cls-1" cx="127.7" cy="146.65" r="3.99"/><circle class="cls-1" cx="127.7" cy="170.59" r="3.99"/><circle class="cls-1" cx="127.7" cy="194.54" r="3.99"/><circle class="cls-1" cx="158.62" cy="3.99" r="3.99"/><circle class="cls-1" cx="158.62" cy="27.43" r="3.99"/><circle class="cls-1" cx="158.62" cy="50.88" r="3.99"/><circle class="cls-1" cx="158.62" cy="74.82" r="3.99"/><circle class="cls-1" cx="158.62" cy="98.76" r="3.99"/><circle class="cls-1" cx="158.62" cy="122.71" r="3.99"/><circle class="cls-1" cx="158.62" cy="146.65" r="3.99"/><circle class="cls-1" cx="158.62" cy="170.59" r="3.99"/><circle class="cls-1" cx="158.62" cy="194.54" r="3.99"/><circle class="cls-1" cx="189.55" cy="3.99" r="3.99"/><circle class="cls-1" cx="189.55" cy="27.43" r="3.99"/><circle class="cls-1" cx="189.55" cy="50.88" r="3.99"/><circle class="cls-1" cx="189.55" cy="74.82" r="3.99"/><circle class="cls-1" cx="189.55" cy="98.76" r="3.99"/><circle class="cls-1" cx="189.55" cy="122.71" r="3.99"/><circle class="cls-1" cx="189.55" cy="146.65" r="3.99"/><circle class="cls-1" cx="189.55" cy="170.59" r="3.99"/><circle class="cls-1" cx="189.55" cy="194.54" r="3.99"/><circle class="cls-1" cx="220.47" cy="3.99" r="3.99"/><circle class="cls-1" cx="220.47" cy="27.43" r="3.99"/><circle class="cls-1" cx="220.47" cy="50.88" r="3.99"/><circle class="cls-1" cx="220.47" cy="74.82" r="3.99"/><circle class="cls-1" cx="220.47" cy="98.76" r="3.99"/><circle class="cls-1" cx="220.47" cy="122.71" r="3.99"/><circle class="cls-1" cx="220.47" cy="146.65" r="3.99"/><circle class="cls-1" cx="220.47" cy="170.59" r="3.99"/><circle class="cls-1" cx="220.47" cy="194.54" r="3.99"/></g></g></svg>