<?xml version="1.0" encoding="UTF-8"?>
<svg id="_圖層_2" data-name="圖層 2" xmlns="http://www.w3.org/2000/svg" xmlns:xlink="http://www.w3.org/1999/xlink" viewBox="0 0 388.52 227.7">
  <defs>
    <style>
      .cls-1 {
        clip-path: url(#clippath);
      }

      .cls-2 {
        fill: none;
      }

      .cls-2, .cls-3, .cls-4 {
        stroke-width: 0px;
      }

      .cls-3 {
        fill: #26703c;
      }

      .cls-4 {
        fill: #f26f20;
      }
    </style>
    <clipPath id="clippath">
      <rect class="cls-2" width="388.52" height="227.7"/>
    </clipPath>
  </defs>
  <g id="Layer_1" data-name="Layer 1">
    <g class="cls-1">
      <g>
        <path class="cls-3" d="m242.41,169.14c-9.47-1.46-11.74-5.39-11.74-5.39l-16.47-21.16,25.65-31.82,27.16,34.2c3.52,4.53,12.41,6.2,12.41,6.2h.29v.23h459.62v-3.4h-454.99c-3.4-.77-6.1-2.59-7.85-4.1-1.08-1.07-1.55-1.91-1.55-1.91l-35.09-44.64-17.12,21,4.89-6.41-33.2-41.25-34.29,42.78-10.98-14.11s-28.17,34.2-34.2,41.58c-6.03,7.38-10.06,5.36-10.06,5.36H-76.87l-.67,8.05s175.04.67,185.11,0c10.06-.67,14.08-8.05,14.08-8.05l28.17-33.53,22.13,28.84,2.99-3.36-14.68,18.45c-4.4,7.55-12.32,7.55-12.32,7.55l-224.97.38v8.05l223.21-.38c14.46-.75,19.37-8.3,19.37-8.3l27.79-34.58,28.55,36.34c4.98,5.09,11.61,6.09,13.13,6.26v.52h505.14v-3.4H242.41Zm-49.34-53.68l-15.88,19.96-12.04-15.48,29.6-35.84,27.48,34.85-13.52,16.58-15.63-20.08Z"/>
        <g>
          <polygon class="cls-4" points="80.71 188.66 82.91 188.66 84.19 184.56 82.91 184.56 80.71 188.66"/>
          <polygon class="cls-4" points="84.29 188.66 86.49 188.66 87.77 184.56 86.49 184.56 84.29 188.66"/>
          <polygon class="cls-4" points="103.63 194.56 100.51 184.56 98.14 184.56 94.85 194.47 91.87 184.56 89.83 184.56 93.74 196.61 95.81 196.61 99.23 186.31 102.42 196.61 104.54 196.61 108.63 184.56 106.76 184.56 103.63 194.56"/>
          <path class="cls-4" d="m115.39,188.08c-1.34,0-2.52.5-3.12,1.39v-4.89h-1.82v12.04h1.82v-4.44c0-.52,0-1.3.31-1.77.25-.4.92-1.12,2.25-1.12,2.06,0,2.06,1.62,2.06,2.37v4.96h1.84v-5.24c0-1.22-.13-1.62-.32-1.95-.55-1.02-2.01-1.33-3.02-1.33Z"/>
          <path class="cls-4" d="m125.96,188.01c-.56,0-1.7.05-2.62.62-1.51.92-1.89,2.29-1.89,3.94,0,2.65,1.44,4.29,4.45,4.29,1.93,0,2.88-.7,3.3-1.12.69-.65.77-1.34.82-1.75h-1.8c-.15,1.2-1.09,1.74-2.26,1.74-1.97,0-2.79-1.29-2.75-3.02h6.9c.04-1.37.13-4.69-4.17-4.69Zm-2.66,3.59c.04-1.85,1.45-2.47,2.62-2.47,2.22,0,2.39,1.67,2.37,2.47h-4.99Z"/>
          <path class="cls-4" d="m137.69,188.06c-2.18,0-2.87,1.17-3.08,1.52l-.02-1.35h-1.8l.02.97v7.41h1.8v-4.82c0-1.69,1.2-2.5,2.5-2.5.61,0,1.24.18,1.7.57.44.38.52.88.52,1.44v5.33h1.83v-5.69c0-2.57-2.62-2.86-3.48-2.86Z"/>
          <polygon class="cls-4" points="155.33 184.56 151.2 190.47 147.13 184.56 144.76 184.56 150.15 191.87 150.15 196.61 152.08 196.61 152.08 191.95 157.47 184.56 155.33 184.56"/>
          <path class="cls-4" d="m161.41,188.01c-3.77,0-4.87,2.44-4.87,4.51,0,2.45,1.55,4.37,4.72,4.37s4.85-2.04,4.85-4.49c0-1.75-.86-4.39-4.7-4.39Zm-.11,7.71c-2.04,0-2.89-1.59-2.89-3.31,0-2.62,1.85-3.26,3-3.26,1.68,0,2.79,1.1,2.79,3.19,0,2.52-1.55,3.37-2.91,3.37Z"/>
          <path class="cls-4" d="m177.11,188.23h-1.85v4.74c0,.42,0,1.07-.4,1.57-.52.67-1.36.94-2.25.94-1.83,0-2.04-1.04-2.04-1.85v-5.39h-1.83v5.63c0,1.65,1.11,2.84,3.48,2.84,2.06,0,2.71-.93,3.06-1.52l.04,1.44h1.87c-.02-.47-.06-1.4-.06-1.57v-6.81Z"/>
          <polygon class="cls-4" points="196.26 194.56 193.15 184.56 190.78 184.56 187.49 194.47 184.51 184.56 182.46 184.56 186.38 196.61 188.45 196.61 191.87 186.31 195.06 196.61 197.18 196.61 201.27 184.56 199.4 184.56 196.26 194.56"/>
          <path class="cls-4" d="m209.45,190.5c0-.38-.02-.78-.32-1.29-.52-.85-2.01-1.24-3.4-1.24-1.01,0-2.37.2-3.1.9-.56.57-.61,1.15-.67,1.59h1.8c.02-.33.11-1.42,1.93-1.42.51,0,1.3.13,1.66.55.35.37.35.82.35,1.85-.56-.03-.84-.05-1.3-.05-.76,0-2.29.05-3.32.55-1.42.72-1.68,1.79-1.68,2.45,0,1.39,1.19,2.47,3.38,2.47.8,0,2.1-.13,2.96-1.52,0,.43.04.83.17,1.25h1.62c-.13-.85-.15-1.97-.15-2.1l.08-4.01Zm-2.22,4.24c-.44.58-1.13.9-2.04.9-1.61,0-1.99-.92-1.99-1.45,0-1.7,2.73-1.7,3.46-1.7.44,0,.71.02,1.03.05-.04,1.17-.06,1.64-.46,2.2Z"/>
          <path class="cls-4" d="m217.61,188.06c-2.18,0-2.87,1.17-3.08,1.52l-.02-1.35h-1.8l.02.97v7.41h1.8v-4.82c0-1.69,1.2-2.5,2.51-2.5.61,0,1.24.18,1.7.57.44.38.52.88.52,1.44v5.33h1.83v-5.69c0-2.57-2.62-2.86-3.48-2.86Z"/>
          <path class="cls-4" d="m226.35,185.94l-1.78.5v1.75h-1.7v1.15h1.7v5.59c0,1.37.79,1.79,2.43,1.79.65,0,1.17-.05,1.49-.1v-1.22c-.15.03-.5.08-.86.08-1.28,0-1.28-.7-1.28-1.12v-5.02h2.14v-1.15h-2.14v-2.25Z"/>
          <polygon class="cls-4" points="231.3 185.98 235.93 185.98 235.93 196.61 237.82 196.61 237.82 185.98 242.45 185.98 242.45 184.56 231.3 184.56 231.3 185.98"/>
          <path class="cls-4" d="m249.19,188.08c-1.34,0-2.52.5-3.11,1.39v-4.89h-1.82v12.04h1.82v-4.44c0-.52,0-1.3.3-1.77.25-.4.92-1.12,2.26-1.12,2.06,0,2.06,1.62,2.06,2.37v4.96h1.83v-5.24c0-1.22-.13-1.62-.33-1.95-.55-1.02-2.01-1.33-3.02-1.33Z"/>
          <path class="cls-4" d="m259.76,188.01c-.55,0-1.7.05-2.62.62-1.51.92-1.89,2.29-1.89,3.94,0,2.65,1.44,4.29,4.46,4.29,1.93,0,2.88-.7,3.3-1.12.69-.65.76-1.34.82-1.75h-1.79c-.15,1.2-1.09,1.74-2.26,1.74-1.97,0-2.79-1.29-2.75-3.02h6.9c.04-1.37.13-4.69-4.17-4.69Zm-2.66,3.59c.04-1.85,1.45-2.47,2.62-2.47,2.22,0,2.39,1.67,2.37,2.47h-4.99Z"/>
          <path class="cls-4" d="m279.06,190.32c.67-.22,2.33-.73,2.33-2.72,0-.95-.38-1.65-.97-2.15-.86-.73-1.8-.88-3.48-.88h-4.93v12.05h5.03c1.09,0,2.16,0,3.12-.55.46-.27,1.66-1.1,1.66-2.74,0-2.3-1.95-2.8-2.75-3Zm-5.2-4.39h2.75c1.05,0,2.79,0,2.79,1.82s-2.22,1.9-2.87,1.9h-2.68v-3.72Zm3.27,9.33h-3.27v-4.17h3.34c1.68,0,2.64.89,2.64,2.09,0,1.39-1.21,2.09-2.71,2.09Z"/>
          <path class="cls-4" d="m288.44,188.01c-.55,0-1.7.05-2.62.62-1.51.92-1.89,2.29-1.89,3.94,0,2.65,1.43,4.29,4.45,4.29,1.93,0,2.89-.7,3.31-1.12.69-.65.76-1.34.82-1.75h-1.8c-.15,1.2-1.09,1.74-2.25,1.74-1.97,0-2.79-1.29-2.75-3.02h6.9c.04-1.37.13-4.69-4.17-4.69Zm-2.66,3.59c.04-1.85,1.45-2.47,2.62-2.47,2.22,0,2.39,1.67,2.37,2.47h-4.99Z"/>
          <path class="cls-4" d="m297.74,191.45c-.5-.12-1.36-.3-1.36-1.07,0-1.2,1.68-1.2,1.95-1.2.65,0,1.91.1,1.85,1.37h1.83c0-.35,0-.75-.25-1.22-.57-1-2.26-1.3-3.46-1.3-2.22,0-3.75,1-3.75,2.54,0,1.75,1.68,2.1,3.69,2.51,1.43.28,2.1.43,2.1,1.25,0,.28-.11.57-.31.78-.38.42-.94.53-1.68.53-1.74,0-2.12-.88-2.1-1.52h-1.89c-.02,2.02,1.8,2.72,3.75,2.72.99,0,2-.12,2.85-.57.71-.38,1.3-1.19,1.3-2.12,0-.53-.19-1.12-.73-1.55-.57-.47-1.15-.6-3.8-1.15Z"/>
          <path class="cls-4" d="m306.8,185.94l-1.78.5v1.75h-1.7v1.15h1.7v5.59c0,1.37.78,1.79,2.43,1.79.65,0,1.17-.05,1.49-.1v-1.22c-.15.03-.49.08-.86.08-1.28,0-1.28-.7-1.28-1.12v-5.02h2.14v-1.15h-2.14v-2.25Z"/>
          <polygon class="cls-4" points="311.33 188.66 312.61 188.66 314.8 184.56 312.61 184.56 311.33 188.66"/>
          <polygon class="cls-4" points="316.2 184.56 314.92 188.66 316.2 188.66 318.38 184.56 316.2 184.56"/>
        </g>
        <g>
          <path class="cls-4" d="m90.39,96.45c-.19.22-.34.47-.52.68-.9,1.05-2.23,1.35-3.52,1.01l-12.31-10.5c-5.47-4.67-8.25-7.6-4.96-11.45.28-.33.78-.84.23-1.31-.44-.38-.84.1-1.09.39l-8.36,9.8c-.28.33-.48.78-.07,1.13.62.53,1.24-.57,1.59-.97,2.38-2.8,4.96-2.54,11.87,3.35l11.5,9.81-.06.07-29.01-4.31c-.38-.07-1.31-.17-1.68-.49-.18-.16-.31-.46-.42-.55-.22-.19-.55-.03-.7.15l-7.62,8.93c-.31.36-.54.85-.13,1.2.37.31.9-.17,1.12-.42,1.27-1.49,2.54-2.91,4.6-3.16l14.73,12.57c6.94,6.23,6.92,8.85,4.96,11.45-.28.32-.78.84-.23,1.31.44.38.84-.1,1.09-.39l8.36-9.8c.28-.33.48-.78.07-1.13-.62-.53-1.25.57-1.59.97-2.6,2.61-4.96,2.54-11.87-3.35l-14.07-12,.06-.07,34.81,4.8c.48.1,2.5.5,2.87.06.25-.29.15-1.07.08-1.44-.19-1.42.38-4.32,1.02-5.59.1-.35.29-.63,0-.88-.29-.25-.55-.1-.74.12Z"/>
          <path class="cls-4" d="m104.19,65.4c-3.88-5.58-3.29-7.73-1.57-8.98.34-.23,1.61-.97,1.29-1.44-.33-.47-.92-.11-1.25.13l-8.98,6.24c-.3.21-.53.52-.28.89.4.57,1.08-.16,1.45-.41,1.72-1.1,3.8-2.19,8.47,4.18l5.46,7.86c2.86,4.11,5.44,8.27-1.56,13.14-4.59,3.19-7.78,2.97-10.59-1.07l-7.16-10.3c-4.04-6.17-4.52-6.93.18-10.19.3-.21.89-.52.56-.98-.39-.57-1.4.28-1.77.53l-12.4,8.62c-.3.21-.57.54-.31.91.4.57,1.15-.2,1.55-.48,3.55-2.47,4.7-1.03,8.37,4.25l7.16,10.3c2.46,3.55,6.26,5.37,14.14-.11,8.28-5.75,6.33-10.06,2.7-15.22l-5.46-7.86Z"/>
          <path class="cls-4" d="m141.65,69.44c-3.93,1.81-5.12.32-7.81-5.66l-5.66-12.59c-1.07-2.37-2.23-4.65.94-6.07,2.85-1.28,7.54-.45,9.96,1.17.29.23,1.15.88,1.58.69.2-.09.33-.42.23-.64-.1-.23-.63-.67-.83-.8l-5.48-4.99c-.22-.17-.94-.93-1.29-.78-.74.33.74,1.97-3.16,3.73l-13.4,6.02c-3.91,1.76-4.14-.44-4.89-.11-.35.16-.26,1.2-.27,1.48l.09,7.42c-.03.24-.05.93.05,1.15.1.22.43.34.63.26.43-.19.51-1.27.53-1.64.39-2.89,2.89-6.95,5.74-8.23,3.16-1.42,4.06.98,5.12,3.35l5.66,12.59c2.69,5.98,3.02,7.86-.94,9.6-.31.14-1.74.51-1.46,1.15.27.6,1,.23,1.42.04l14.14-6.36c.43-.19,1.19-.49.92-1.09-.29-.64-1.51.18-1.83.32Z"/>
          <path class="cls-4" d="m197.08,60.36c-3.76.25-3.98-1.63-4.42-8.23l-.71-10.74c-.44-6.6-.45-8.49,3.3-8.74.39-.03,1.32.12,1.28-.59-.03-.46-.39-.56-.71-.54l-13.04.86c-.32.02-.66.17-.63.63.05.71.96.44,1.34.42,3.75-.25,3.98,1.63,4.42,8.23l.71,10.74c.44,6.6.45,8.49-3.3,8.74-.39.03-1.32-.12-1.28.59.03.46.39.56.71.54l13.04-.86c.32-.02.67-.17.63-.63-.05-.71-.95-.44-1.34-.41Z"/>
          <path class="cls-4" d="m250.3,67.57c-1.42-.69-2.04-1.29-2.37-2.58l7.13-11.74c1.55-2.56,5.47-8.96,7.65-10.76,1.88-1.47,3.92-2.45,6.42-1.86.44.11.98.08,1.08-.35.19-.81-1.12-.97-1.73-1.12l-12.31-2.92c-.61-.15-2.35-.71-2.56.15-.17.72.98.79,1.54.92,3.22.76,4.27,2.98,3.62,5.71-.19.81-1.12,2.76-2.49,5.06l-8.89,15.21-.11-.03-1.48-15.96c-.2-2.12-.75-7.2-.3-9.11.45-1.91,1.88-2.74,4.04-2.22.56.13,1.73.61,1.9-.1.15-.62-.49-.88-1.05-1.01l-14.59-3.46c-.61-.14-1.66-.39-1.84.37-.1.43.33.58.66.66,2.44.58,3.28.98,4.25,8.74l-10.62,17.58-.11-.03-1.56-18.6c-.16-1.55-.33-5.03,0-6.42.47-1.96,2.15-2.37,4.21-2.18.41,0,.78-.07.87-.45.15-.62-.63-.81-1.18-.94l-14.36-3.41c-.49-.17-1.33-.32-1.48.3-.14.57.64.76,1.02.9,3.6,1.36,4.03,5,4.2,7.72l1.94,28.09c0,.25-.04,1.65.6,1.91.33.08.77-.27,1.02-.36.5-.39,3.04-1.95,7.26-1.46.28.07.81.04.89-.29.07-.29-.25-.41-.52-.53-1.42-.69-2.04-1.29-2.37-2.58l10.34-16.89.11.03,1.9,23.59c.03.36-.21,2.88.62,3.08.33.08.77-.27,1.02-.36.5-.39,3.04-1.95,7.26-1.46.28.07.81.04.89-.29.07-.29-.25-.41-.52-.53Z"/>
          <path class="cls-4" d="m286.59,78.93c-.36-.18-.8.12-.95.22-.69.49-1.71,1.15-3.08,1.72-2.69,1.13-6.75,1.95-11.36-.33-1.51-.75-3.94-2.13-4.42-3.86-.42-1.55.78-3.47,1.34-4.81l3.48-7.04,3.41,1.69c5.72,2.83,5.13,5.23,3.84,8.72-.15.39-.19.69.28.93.56.27.79-.49.97-.87l5.16-10.43c.18-.37.65-1.02.1-1.3-.48-.24-.68-.01-.91.34-1.77,3.39-3.17,4.51-8.97,1.64l-3.41-1.69,2.26-4.58c.61-1.23,1.91-4.06,3.07-4.79,1.3-.84,2.94-.16,4.3.5,6.27,3.1,8.35,9.09,8.28,10.73,0,.32.01.98.41,1.18.2.1.47.05.56-.14.09-.19.16-1.13.12-1.24l.39-7.78c.05-.3.27-1.35-.2-1.58-.28-.14-.52.16-.7.3-.82.66-2.08.41-2.99.05-1.74-.67-4.44-2.01-6.23-2.89l-12.95-6.4c-.36-.18-.81-.26-1.01.15-.31.63.81.96,1.25,1.17,4.21,2.08,3.5,3.82.59,9.7l-4.74,9.58c-2.91,5.89-3.86,7.5-8.07,5.42-.44-.22-1.38-.91-1.69-.28-.2.41.14.72.5.89l13.22,6.54c7.59,3.75,8.09,5.02,7.61,6.59-.09.28-.2.69.16.87.32.16.66-.14.85-.32l7.66-6.09c.38-.28,1.91-1.47,2.1-1.84.13-.26.02-.54-.26-.68Z"/>
          <path class="cls-4" d="m306.84,84.15c-1.88-2.48-5.15-6.47-2.64-9.54,2.1-2.57,5.94-1.91,8.28,0,3.18,2.59,4.99,7.77,4.07,11.72-.1.39-.37,1.23.05,1.57.13.1.48.13.64-.06.16-.19.29-.87.35-1.08l2.4-8.18c.08-.3.45-1.01.09-1.3-.61-.5-1.59,1.82-3.32.4-.26-.21-.77-.89-1.44-1.65-.64-.79-1.47-1.67-2.37-2.41-6.26-5.11-11.47-2.71-13.36-.4-3.41,4.18-.3,9.15,2.35,12.85,4.48,6.24,5.78,8.78,3.35,11.75-2.74,3.36-6.62,2.41-9.73-.13-3.91-3.19-5.32-9.14-4.52-13.92,0-.32.16-.72-.16-.98-.16-.13-.45-.1-.61.09-.18.22-.38,1.06-.44,1.33l-2.44,8.56c-.11.39-.56,1.34-.18,1.65.35.29.68-.18,1.21-.49.46-.31,1.15-.49,2.08.27,1.83,1.49,2.13,1.84,2.67,2.49.57.62,1.3,1.49,2.07,2.11,6.9,5.63,12.32,3.25,14.6.46,4.16-5.1.27-10.75-3.01-15.12Z"/>
          <path class="cls-4" d="m346.76,106.44c-.53-.62-1.67,1.27-4.47-1.98l-9.64-11.14c-2.81-3.25-.78-4.09-1.31-4.71-.25-.29-1.22.09-1.49.15l-7.06,2.19c-.24.04-.9.21-1.09.37-.19.16-.2.52-.06.68.31.36,1.36.13,1.72.05,2.87-.44,7.47.8,9.52,3.17,2.28,2.63.25,4.17-1.71,5.86l-10.39,8.99c-4.93,4.27-6.64,5.12-9.44,1.81-.22-.26-.99-1.52-1.52-1.07-.5.43.07,1.02.38,1.38l10.18,11.75c.31.36.81,1,1.31.57.52-.45-.62-1.4-.84-1.66-2.87-3.25-1.79-4.82,3.15-9.08l10.38-8.99c1.95-1.69,3.79-3.45,6.07-.82,2.05,2.37,2.62,7.1,1.78,9.88-.13.34-.51,1.35-.2,1.71.14.16.49.2.68.03.19-.16.45-.79.52-1.02l3.18-6.67c.1-.26.62-1.16.37-1.46Z"/>
          <path class="cls-4" d="m180.01,64.45l-14.09-14.87-.42-.48c3.86-1.34,7.52-4.27,6.57-8.92-1.25-6.13-6.98-6.12-13.95-4.7l-14.99,3.05c-.36.07-.74.28-.65.73.14.7,1.15.28,1.6.19,4.29-.88,4.79.95,6.12,7.45l2.15,10.57c1.33,6.5,1.58,8.37-2.71,9.25-.44.09-1.54.1-1.4.8.09.45.52.49.89.42l14.91-3.04c.37-.07.74-.28.65-.73-.14-.7-1.15-.28-1.6-.19-4.29.87-4.79-.95-6.12-7.45l-1.02-5.02,4.7-.96,14.06,16.23s4.75,3.2,11.3-1.7c0,0-4.53,1.15-5.99-.64Zm-22.74-14.31l-1.54.31-1.47-7.2c-.3-1.48-.96-3.66,0-4.97.73-.96,2.98-1.51,4.2-1.75,4.17-.85,7.27.06,8.22,4.71.43,2.14,0,4.97-2,6.1-.4-1.33-.19-1.55-.31-2.12-.05-.25-.19-.31-.39-.26-.28.06-.34.37-.34.58-.22,3.26-3.77,4.07-6.36,4.6Z"/>
          <path class="cls-4" d="m212.14,44.51l-2.82-2.52c-2.82-1.72-6.66,2.27-6.66,2.27,1.82-.76,4.14.05,4.14.05l2.67,1.82c4.14,1.82,5.7-1.46,5.7-1.46-1.31.66-3.03-.15-3.03-.15Z"/>
        </g>
        <g>
          <path class="cls-4" d="m354.02,129.94h-.03s-.03-.01-.03-.01v-.03c.79-.08,1.56-.57,1.56-1.49,0-1.14-.9-1.45-1.85-1.45h-2.66v.28c.53,0,.71,0,.71.39v4.37c0,.42-.21.42-.7.42v.31h2.28v-.31c-.57,0-.7,0-.7-.49v-1.75h.25c.29,0,.64-.01.77.1.81.72.56,2.45,1.81,2.45h.75v-.26c-1.18,0-1.07-2.41-2.17-2.52Zm-1.01-.17h-.39v-2.18c.01-.21.11-.36.39-.36h.4c.79,0,1.18.39,1.18,1.25,0,1.08-.72,1.29-1.58,1.29Z"/>
          <path class="cls-4" d="m353.48,124.78c-2.81,0-5.08,2.38-5.08,5.24s2.28,5.2,5.09,5.2,5.13-2.34,5.13-5.21-2.31-5.23-5.15-5.23Zm.01,9.64c-2.49,0-4.28-1.9-4.28-4.39s1.78-4.44,4.27-4.44,4.46,1.88,4.34,4.42c-.12,2.5-1.85,4.41-4.32,4.41Z"/>
        </g>
      </g>
    </g>
  </g>
</svg>